Coordinates
version=1
nRows=26
nColumns=18
inDegrees=yes

Units are S.I. units (second, meters, Newtons, ...)
If the header above contains a line with 'inDegrees', this indicates whether rotational values are in degrees (yes) or radians (no).

endheader
time	ground_thorax_rot_x	ground_thorax_rot_y	ground_thorax_rot_z	ground_thorax_tx	ground_thorax_ty	ground_thorax_tz	clav_prot	clav_elev	scapula_abduction	scapula_elevation	scapula_upward_rot	scapula_winging	plane_elv	shoulder_elv	axial_rot	elbow_flexion	pro_sup
      3.33000000	      3.16653245	     -4.10718362	     -8.70402367	     -0.00529871	      0.00395014	      0.00227074	    -21.45702601	     -4.12063922	    -11.69828085	     -3.31033476	     11.07411890	      5.76556356	    -20.95311111	     18.02866496	     53.62576049	      0.00000000	     34.32000000
      3.34000000	      3.17822449	     -4.03759806	     -8.71648909	     -0.00523085	      0.00394320	      0.00222401	    -21.42989862	     -4.09406940	    -11.65338289	     -3.29045439	     11.08213174	      5.75369164	    -20.97259649	     18.01322599	     53.61550931	      0.00000000	     34.32000000
      3.35000000	      3.17820312	     -4.03635533	     -8.71598949	     -0.00511515	      0.00393755	      0.00225550	    -21.42961488	     -4.09398082	    -11.65274196	     -3.29045227	     11.08243541	      5.75356681	    -20.97261764	     18.01306453	     53.61543202	      0.00000000	     34.32000000
      3.36000000	      3.19406609	     -3.97652416	     -8.70663079	     -0.00518955	      0.00391588	      0.00221932	    -21.41290645	     -4.08645514	    -11.61595506	     -3.28836445	     11.09965894	      5.74569607	    -20.98302690	     18.00191360	     53.60856128	      0.00000000	     34.32000000
      3.37000000	      3.19409330	     -3.97560102	     -8.70597265	     -0.00509406	      0.00391189	      0.00219840	    -21.41274641	     -4.08649228	    -11.61544013	     -3.28849348	     11.10006108	      5.74558957	    -20.98304004	     18.00161555	     53.60848241	      0.00000000	     34.32000000
      3.38000000	      3.16426021	     -3.93636773	     -8.67946563	     -0.00513614	      0.00401319	      0.00202868	    -21.40886350	     -4.08093410	    -11.59149220	     -3.29302870	     11.13331051	      5.73513960	    -20.98068207	     17.98564425	     53.60442208	      0.00000000	     34.32000000
      3.39000000	      3.09546625	     -3.87552242	     -8.66163780	     -0.00521378	      0.00393632	      0.00194972	    -21.39087360	     -3.94374453	    -11.53881415	     -3.21373437	     11.23423274	      5.66788739	    -21.07828255	     17.76953900	     53.54060054	      0.00000000	     34.32000000
      3.40000000	      3.06743491	     -3.84774498	     -8.64704595	     -0.00516373	      0.00404211	      0.00195538	    -21.39129510	     -3.93282936	    -11.52032117	     -3.21601964	     11.27349016	      5.65465309	    -21.07592987	     17.77467988	     53.53849645	      0.00000000	     34.32000000
      3.41000000	      3.04419769	     -3.78432333	     -8.62385803	     -0.00518437	      0.00414787	      0.00191919	    -21.38049092	     -3.92442586	    -11.48088404	     -3.21998400	     11.31416308	      5.64094472	    -21.06874834	     17.75431659	     53.53435926	      0.00000000	     34.32000000
      3.42000000	      3.03730189	     -3.71168264	     -8.61321468	     -0.00523119	      0.00420476	      0.00192114	    -21.36087084	     -3.91060432	    -11.43375696	     -3.21613577	     11.34345982	      5.62790484	    -21.06654244	     17.71412278	     53.52767189	      0.00000000	     34.32000000
      3.43000000	      3.05101528	     -3.65154578	     -8.60905632	     -0.00524618	      0.00414582	      0.00193464	    -21.34277875	     -3.90211531	    -11.39099921	     -3.21503397	     11.36735801	      5.61791504	    -21.06680251	     17.68607435	     53.52254246	      0.00000000	     34.32000000
      3.44000000	      3.24478710	     -3.60533889	     -8.65233981	     -0.00518025	      0.00400744	      0.00193688	    -21.31550501	     -3.75966712	    -11.24365264	     -3.16951968	     11.60977459	      5.51231937	    -21.19359880	     17.64773909	     53.47381923	      0.00000000	     34.32000000
      3.45000000	      3.25227724	     -3.57783002	     -8.62696063	     -0.00516822	      0.00400962	      0.00190293	    -21.30870055	     -3.77348739	    -11.22397214	     -3.18178219	     11.61726364	      5.51381067	    -21.18806070	     17.62388775	     53.47276986	      0.00000000	     34.32000000
      3.46000000	      3.22951824	     -3.55522186	     -8.61143455	     -0.00518894	      0.00410759	      0.00175358	    -21.29930056	     -3.77354830	    -11.20691233	     -3.18160356	     11.61844474	      5.51279687	    -21.18497381	     17.56782931	     53.47078240	      0.00000000	     34.32000000
      3.47000000	      3.08085460	     -3.56437184	     -8.60782468	     -0.00517077	      0.00403265	      0.00158042	    -21.27954221	     -3.72635121	    -11.19270066	     -3.14035314	     11.60439640	      5.50143363	    -21.17708202	     17.31267174	     53.47139368	      0.00000000	     34.32000000
      3.48000000	      3.07639210	     -3.53762725	     -8.58498980	     -0.00514789	      0.00416859	      0.00146916	    -21.27439272	     -3.73663543	    -11.17328319	     -3.15168562	     11.61812666	      5.50038389	    -21.16433713	     17.28285888	     53.47460940	      0.00000000	     34.32000000
      3.49000000	      3.06266494	     -3.50665228	     -8.58090651	     -0.00511856	      0.00413315	      0.00153717	    -21.26940163	     -3.73580696	    -11.15351898	     -3.15615540	     11.63808228	      5.49461348	    -21.15488928	     17.27135251	     53.47910274	      0.00000000	     34.32000000
      3.50000000	      3.05332821	     -3.47568749	     -8.58365082	     -0.00514697	      0.00408719	      0.00162151	    -21.26496368	     -3.73134251	    -11.13276909	     -3.15924049	     11.66313375	      5.48651005	    -21.14835425	     17.27573273	     53.48377180	      0.00000000	     34.32000000
      3.51000000	      3.05247451	     -3.47453010	     -8.58354936	     -0.00511422	      0.00409728	      0.00173607	    -21.26487069	     -3.73113266	    -11.13213875	     -3.15932355	     11.66405754	      5.48620386	    -21.14813558	     17.27627985	     53.48387932	      0.00000000	     34.32000000
      3.52000000	      3.04099275	     -3.44120522	     -8.58099844	     -0.00514096	      0.00412272	      0.00162636	    -21.26001188	     -3.72666697	    -11.10969985	     -3.16283748	     11.69079145	      5.47763060	    -21.13854257	     17.27898926	     53.48784097	      0.00000000	     34.32000000
      3.53000000	      3.04084089	     -3.39155066	     -8.59524651	     -0.00510342	      0.00420465	      0.00147438	    -21.24393514	     -3.71423173	    -11.08151578	     -3.15397325	     11.69684608	      5.47137868	    -21.12711855	     17.23420513	     53.49217037	      0.00000000	     34.32000000
      3.54000000	      3.04089737	     -3.39103284	     -8.59510155	     -0.00495892	      0.00429186	      0.00132680	    -21.24372903	     -3.71408698	    -11.08131303	     -3.15378684	     11.69658502	      5.47126630	    -21.12687970	     17.23304576	     53.49220452	      0.00000000	     34.32000000
      3.55000000	      2.98663765	     -3.33210746	     -8.64560111	     -0.00494245	      0.00410930	      0.00125036	    -21.23953812	     -3.64610202	    -11.08457066	     -3.10468926	     11.70923682	      5.44838492	    -21.08940003	     17.09037432	     53.51532593	      0.00000000	     34.32000000
      3.56000000	      2.97122294	     -3.32940757	     -8.64119979	     -0.00497038	      0.00401847	      0.00130443	    -21.24863634	     -3.63981681	    -11.08489186	     -3.10859464	     11.73958726	      5.43946066	    -21.08263993	     17.11530403	     53.52109880	      0.00000000	     34.32000000
      3.57000000	      2.97106936	     -3.32846948	     -8.64067267	     -0.00496741	      0.00394020	      0.00146023	    -21.24873482	     -3.64002777	    -11.08443453	     -3.10902167	     11.74056695	      5.43926746	    -21.08242511	     17.11625183	     53.52124134	      0.00000000	     34.32000000
      3.58000000	      3.02108732	     -3.27689965	     -8.63649857	     -0.00501300	      0.00400060	      0.00142918	    -21.25048246	     -3.65134203	    -11.05600396	     -3.13140661	     11.79084859	      5.42955989	    -21.06881214	     17.16722683	     53.53476837	      0.00000000	     34.32000000
